<svg width="38" height="37" viewBox="0 0 38 37" fill="none" xmlns="http://www.w3.org/2000/svg">
<path d="M22.1839 7.74548V25.2461C22.1839 26.3286 21.3059 27.2218 20.2083 27.2218H2.7227C1.61758 27.2218 0.74707 26.3286 0.74707 25.2461V20.0308C1.15585 20.1897 1.61 20.2654 2.07173 20.2654C4.15334 20.2654 5.84137 18.585 5.84137 16.4958C5.84137 14.4142 4.15334 12.7186 2.07173 12.7186C1.61 12.7186 1.15585 12.7943 0.74707 12.9684V7.74548C0.74707 6.65547 1.61758 5.7698 2.7227 5.7698H7.94567C7.78669 5.35349 7.68833 4.91449 7.68833 4.44514C7.68833 2.36353 9.38389 0.667969 11.4655 0.667969C13.5471 0.667969 15.2351 2.36353 15.2351 4.44514C15.2351 4.91449 15.1443 5.35349 14.9853 5.7698H20.2083C21.3059 5.7698 22.1839 6.65547 22.1839 7.74548Z" fill="#FFC105"/>
<path d="M22.1839 7.7477V25.2484C22.1839 26.3308 21.3059 27.224 20.2083 27.224H2.7227C1.61758 27.224 0.74707 26.3308 0.74707 25.2484V20.033C1.15585 20.192 1.61 20.2676 2.07173 20.2676C2.44263 20.2676 2.79842 20.2071 3.13906 20.1087C3.81271 19.8967 4.51671 19.8437 5.22067 19.8437H5.61425C6.62858 19.8437 7.58993 19.5939 8.43013 19.1549C10.3755 18.133 11.7002 16.0968 11.7002 13.7503V3.87213C11.7002 1.97975 14.4176 1.42715 15.0307 3.22111C15.167 3.60717 15.2351 4.01595 15.2351 4.44737C15.2351 4.91672 15.1443 5.35572 14.9853 5.77203H20.2083C21.3059 5.77203 22.1839 6.6577 22.1839 7.7477Z" fill="#FFCB2F"/>
<path d="M22.1835 8.35938V25.2469C22.1835 26.3294 21.3054 27.2225 20.2078 27.2225H8.42969V10.494C8.42969 9.31314 9.39103 8.35938 10.5643 8.35938H22.1835Z" fill="#F2B707"/>
<path d="M33.2747 17.2488C32.8022 17.2488 32.3547 17.3458 31.9372 17.5033V12.2333C31.9372 11.133 31.0453 10.241 29.945 10.241H12.3067C11.2064 10.241 10.3145 11.133 10.3145 12.2333V29.8716C10.3145 30.9718 11.2064 31.8638 12.3067 31.8638H17.5767C17.4192 32.2813 17.3222 32.7288 17.3222 33.2013C17.3222 35.302 19.0252 37.005 21.1258 37.005C23.2265 37.005 24.9295 35.302 24.9295 33.2013C24.9295 32.7288 24.8325 32.2813 24.675 31.8638H29.945C31.0453 31.8638 31.9372 30.9718 31.9372 29.8716V24.6016C32.3547 24.7591 32.8022 24.8561 33.2747 24.8561C35.3754 24.8561 37.0784 23.1531 37.0784 21.0524C37.0784 18.9518 35.3754 17.2488 33.2747 17.2488Z" fill="#FC4A32"/>
<path d="M34.0281 17.3319C33.2733 17.1645 32.5708 17.2644 31.9372 17.5033V12.2334C31.9372 11.133 31.0452 10.241 29.9448 10.241C27.7778 10.241 26.0212 11.9977 26.0212 14.1646V17.1273C26.0212 22.5271 21.6437 26.9046 16.2439 26.9046H13.2814C11.6428 26.9046 10.3145 28.2329 10.3145 29.8716C10.3145 30.9719 11.2064 31.8639 12.3068 31.8639H17.5767C17.3377 32.4976 17.2378 33.2002 17.4054 33.9552C17.8131 35.7924 19.5474 37.1388 21.4236 36.9935C23.3851 36.8417 24.9295 35.2018 24.9295 33.2013C24.9295 32.7288 24.8325 32.2814 24.675 31.8639H29.945C31.0453 31.8639 31.9372 30.9719 31.9372 29.8716V24.6016C32.3547 24.7591 32.8021 24.8561 33.2747 24.8561C35.2754 24.8561 36.9154 23.3114 37.067 21.3496C37.212 19.4734 35.8653 17.7393 34.0281 17.3319Z" fill="#E23E2D"/>
<path d="M28.665 29.7014H24.6969C24.1455 29.7014 23.6982 29.2542 23.6982 28.7028C23.6982 28.1513 24.1455 27.7041 24.6969 27.7041H28.665C29.2164 27.7041 29.6637 28.1513 29.6637 28.7028C29.6637 29.2542 29.2164 29.7014 28.665 29.7014Z" fill="#FF6252"/>
<path d="M28.6647 29.7019C28.1132 29.7019 27.666 29.2547 27.666 28.7032V22.6432C27.666 22.0918 28.1132 21.6445 28.6647 21.6445C29.2161 21.6445 29.6634 22.0918 29.6634 22.6432V28.7032C29.6634 29.2547 29.2161 29.7019 28.6647 29.7019Z" fill="#FF6252"/>
<path d="M17.1738 14.6687C17.1738 16.3416 15.2739 19.3012 14.2822 19.3012C13.2906 19.3012 12.4883 17.9463 12.4883 16.2734C12.4883 14.6006 13.2906 13.2456 14.2822 13.2456C15.2739 13.2456 17.1738 12.9958 17.1738 14.6687Z" fill="#FF6252"/>
</svg>
